<svg width="30" height="30" viewBox="0 0 30 30" fill="none" xmlns="http://www.w3.org/2000/svg">
<mask id="mask0_4256_15180" style="mask-type:alpha" maskUnits="userSpaceOnUse" x="0" y="0" width="30" height="30">
<rect x="30" y="30" width="30" height="30" transform="rotate(-180 30 30)" fill="#D9D9D9"/>
</mask>
<g mask="url(#mask0_4256_15180)">
<path d="M11.5306 15.0625L21.3744 24.9062C21.6035 25.1354 21.7181 25.4219 21.7181 25.7656C21.7181 26.1094 21.6035 26.4062 21.3744 26.6562C21.1244 26.9062 20.8275 27.0312 20.4837 27.0312C20.14 27.0312 19.8431 26.9062 19.5931 26.6562L9.31188 16.375C9.12438 16.1875 8.98896 15.9792 8.90563 15.75C8.82229 15.5208 8.78063 15.2917 8.78063 15.0625C8.78063 14.8333 8.82229 14.6042 8.90563 14.375C8.98896 14.1458 9.12438 13.9375 9.31188 13.75L19.6244 3.4375C19.8744 3.1875 20.166 3.06771 20.4994 3.07812C20.8327 3.08854 21.1244 3.21875 21.3744 3.46875C21.6035 3.71875 21.7233 4.01042 21.7338 4.34375C21.7442 4.67708 21.6244 4.96875 21.3744 5.21875L11.5306 15.0625Z" fill="#E5B4AE"/>
</g>
</svg>
